<svg width="100.000000" height="100.000000" viewBox="0 0 100 100" fill="none" xmlns="http://www.w3.org/2000/svg" xmlns:xlink="http://www.w3.org/1999/xlink">
	<desc>
			Created with Pixso.
	</desc>
	<defs/>
	<path id="Vector" d="M70.3125 78.125C64.2719 78.125 59.375 73.2281 59.375 67.1875C59.375 61.1469 64.2719 56.25 70.3125 56.25C76.3531 56.25 81.25 61.1469 81.25 67.1875C81.25 73.2281 76.3531 78.125 70.3125 78.125Z" stroke="#FFFFFF" stroke-opacity="1.000000" stroke-width="3.000000" stroke-linejoin="round"/>
	<path id="Vector" d="M20.3125 90.625C14.2719 90.625 9.375 85.7281 9.375 79.6875C9.375 73.6469 14.2719 68.75 20.3125 68.75C26.3531 68.75 31.25 73.6469 31.25 79.6875C31.25 85.7281 26.3531 90.625 20.3125 90.625Z" stroke="#FFFFFF" stroke-opacity="1.000000" stroke-width="3.000000" stroke-linejoin="round"/>
	<path id="Vector" d="M31.25 43.75L81.25 31.25" stroke="#FFFFFF" stroke-opacity="1.000000" stroke-width="3.000000" stroke-linejoin="round" stroke-linecap="round"/>
	<path id="Vector" d="M31.25 79.6875L31.25 25L81.25 12.5L81.25 67.1875" stroke="#FFFFFF" stroke-opacity="1.000000" stroke-width="3.000000" stroke-linejoin="round"/>
</svg>
