<svg width="100.000000" height="100.000000" viewBox="0 0 100 100" fill="none" xmlns="http://www.w3.org/2000/svg" xmlns:xlink="http://www.w3.org/1999/xlink">
	<desc>
			Created with Pixso.
	</desc>
	<defs/>
	<path id="Vector" d="M23.7889 14.0232C23.855 13.619 24.0008 13.232 24.218 12.8848C24.4352 12.5375 24.7193 12.237 25.0538 12.0006C25.3882 11.7643 25.7664 11.5969 26.1663 11.5083C26.5661 11.4196 26.9796 11.4114 27.3827 11.4841L48.9452 15.2732C49.7598 15.4255 50.4822 15.8914 50.957 16.5708C51.4318 17.2501 51.6211 18.0886 51.4842 18.906L41.992 72.7732C41.342 76.4004 39.298 79.629 36.2974 81.768C33.2969 83.9071 29.5782 84.7867 25.9373 84.2185C18.1639 82.9685 12.9686 75.3513 14.3358 67.5779L23.7889 14.0232Z" stroke="#FFFFFF" stroke-opacity="1.000000" stroke-width="3.000000" stroke-linejoin="round"/>
	<path id="Vector" d="M46.2097 48.7501L74.6863 38.3985C75.0734 38.2556 75.4851 38.1907 75.8974 38.2077C76.3098 38.2247 76.7147 38.3232 77.0887 38.4976C77.4628 38.6719 77.7987 38.9186 78.0769 39.2234C78.3551 39.5282 78.5702 39.8851 78.7097 40.2735L86.2097 60.8204C86.4863 61.5976 86.4445 62.4526 86.0932 63.1989C85.742 63.9453 85.1098 64.5226 84.3347 64.8048L32.9285 83.5157" stroke="#FFFFFF" stroke-opacity="1.000000" stroke-width="3.000000" stroke-linejoin="round" stroke-linecap="round"/>
	<path id="Vector" d="M85.9375 63.4766L85.9375 81.25C85.9375 82.0788 85.6083 82.8737 85.0222 83.4597C84.4362 84.0458 83.6413 84.375 82.8125 84.375L28.125 84.375" stroke="#FFFFFF" stroke-opacity="1.000000" stroke-width="3.000000" stroke-linejoin="round" stroke-linecap="round"/>
	<path id="Vector" d="M32.8125 70.3125C32.8125 72.9013 30.7138 75 28.125 75C25.5362 75 23.4375 72.9013 23.4375 70.3125C23.4375 67.7237 25.5362 65.625 28.125 65.625C30.7138 65.625 32.8125 67.7237 32.8125 70.3125Z" fill="#FFFFFF" fill-opacity="1.000000" fill-rule="evenodd"/>
</svg>
